<?xml version="1.0" ?><svg id="Layer_10" style="enable-background:new 0 0 128 128;" version="1.1" viewBox="0 0 128 128" xml:space="preserve" xmlns="http://www.w3.org/2000/svg" xmlns:xlink="http://www.w3.org/1999/xlink"><style type="text/css">
	.st0{fill:#F9C467;}
	.st1{fill:#F4A321;}
	.st2{fill:#996200;}
	.st3{fill:#774F00;}
	.st4{fill:#B75615;}
	.st5{fill:#176B00;}
	.st6{fill:#DDDD00;}
	.st7{fill:#231F20;}
</style><path class="st0" d="M39.5,78.6c-1.3,2.6-2.4,5.6-4.3,7.6c10.5,10.4,33.1,8.9,45,2.3c2-1.1,4.4-3.3,6.5-4.6  C81.2,73.7,77.6,63.2,74.3,52c-1.9-6.3-3.9-12.5-6-18.7c-1-2.9-1.8-5.9-3-8.7c-0.1-0.3-1.3-4.3-1.4-4.2c-0.3,1.3-0.9,3.6-1,4  c-3.1,12.9-8.7,24.9-14.3,36.9C45.7,67.4,42.5,72.7,39.5,78.6z"/><path class="st1" d="M76.4,33.3c-0.9-2-4.3-8.3-7.4-10.9c2.9,6.6,3.7,13.7,6,20.5c4.5,13.3,7.6,26.8,14.8,39.1  c0.3-0.1,2.3-0.2,2.6-0.3c-4.6-10.6-6.5-21.4-10-32.4C80.7,44,78.6,38.3,76.4,33.3z"/><path class="st2" d="M102,89.3l-35,20.9c-3.8-0.9-21.5-4.2-25.1-5.9c-3.5-1.7-8-2.9-11.2-5.4c-2-1.6-4.1-4.1-3.7-7.8  c0.3-3.4,4.6-4.7,7-4.2c7.7,9.4,18.7,9.3,29,8.5c6.2-0.5,12.1-1.6,17.7-4.6c4.7-2.5,14.2-10.1,19-5.1C101.1,87,101.8,88.2,102,89.3z  "/><path class="st3" d="M98.5,96c-3.2,3.5-6.3,6.5-10.3,8.5c-7.3,3.6-15.3,5.3-23.1,5.3c-4.1,0-32.7-9.6-28.7-8.8  c17.2,3.9,45.5,4.6,62.4-13.8C100.4,85.5,100.8,93.5,98.5,96z"/><circle class="st4" cx="63.8" cy="48" r="3.8"/><circle class="st4" cx="49.8" cy="79" r="3.8"/><circle class="st4" cx="69" cy="67" r="3.8"/><rect class="st5" height="7.9" transform="matrix(0.842 0.5395 -0.5395 0.842 43.9957 -19.3125)" width="3.9" x="53" y="61.5"/><rect class="st5" height="7.9" transform="matrix(-0.6727 0.7399 -0.7399 -0.6727 162.1959 80.0531)" width="3.9" x="61.5" y="72"/><rect class="st5" height="5.3" transform="matrix(-0.6727 0.7399 -0.7399 -0.6727 135.8217 15.1713)" width="2.6" x="63.2" y="35"/><circle class="st6" cx="58.2" cy="86.2" r="2.8"/><circle class="st6" cx="76" cy="77.3" r="2.8"/><circle class="st6" cx="63.4" cy="58.5" r="2.8"/><path class="st7" d="M96.8,80.3c-5.7-13.6-9-27.9-14.2-41.7c-2.8-7.3-8.8-26.9-19.6-21.9c-0.1,0-0.2,0-0.4,0c-4.5-0.2-4.6,6-5.3,9.1  c-1.7,6.8-3.9,13.4-6.5,19.9c-2.7,6.8-5.8,13.4-9,19.9c-2.6,5.3-5.5,15.2-11.1,17.9c-0.1,0.1-0.2,0.1-0.4,0.2  c-3.1,0.6-5.7,2.7-7,6.1c-2.4,6.6,2.9,10.3,8,13.3c12.7,7.7,28.1,10.6,42.8,8.4c7.2-1.1,15.2-3.2,21.1-7.7c3.7-2.9,9.8-7.1,9.9-12.4  C105.2,86.9,101.3,81.6,96.8,80.3z M75.5,35.4c2,4.8,3.7,9.6,5.2,14.6C83.8,60.3,87,70.5,91,80.5c-0.3,0.1-0.6,0.2-0.9,0.3  C83.8,69.3,80.9,56.5,76.9,44c-2-6.3-3.9-12.9-6.4-19.1C72.8,28.3,74.7,33.5,75.5,35.4z M49.9,61.6c5.3-11.4,10-23.1,13-35.3  c0.1-0.4,0.6-2.5,0.9-3.8c0.1,0,0.1,0,0.2,0c0.3,1.4,1,3.8,1.1,4.1c1.2,2.7,1.9,5.5,2.9,8.2c2,5.9,3.9,11.8,5.7,17.7  c3.2,10.6,6.2,21.2,11.5,31c-2,1.3-4,2.7-5.8,3.7c-11.3,6.2-32,8.1-42-1.8c1.7-2,3-4.4,4.2-6.8C44.4,72.9,47.2,67.3,49.9,61.6z   M95.8,96.1c-3,2.7-6,5-9.7,6.6c-6.9,2.8-14.4,4.1-21.8,4.1c-7.5-0.1-14.9-1.5-21.8-4.3c-3.3-1.3-6.6-3-9.6-5  c-1.9-1.2-4.8-2.4-4.5-5.3c0.3-2.6,2.8-3.6,5-3.1c7.2,7.3,19.2,8.8,29,8.2c5.8-0.4,11.6-1.6,16.9-4c4.4-2,13.2-10.6,17.7-6.7  C101,90,99.1,93.3,95.8,96.1z"/></svg>