<?xml version="1.0" ?><svg height="100" id="svg2" style="enable-background:new" version="1.1" viewBox="0 0 100 100" width="100" xmlns="http://www.w3.org/2000/svg" xmlns:cc="http://creativecommons.org/ns#" xmlns:dc="http://purl.org/dc/elements/1.1/" xmlns:inkscape="http://www.inkscape.org/namespaces/inkscape" xmlns:rdf="http://www.w3.org/1999/02/22-rdf-syntax-ns#" xmlns:sodipodi="http://sodipodi.sourceforge.net/DTD/sodipodi-0.dtd" xmlns:svg="http://www.w3.org/2000/svg" xmlns:xlink="http://www.w3.org/1999/xlink"><defs id="defs4"><linearGradient id="linearGradient4400"><stop id="stop4402" offset="0" style="stop-color:#ef5195;stop-opacity:1"/><stop id="stop4404" offset="1" style="stop-color:#fffa9e;stop-opacity:1"/></linearGradient><filter id="filter4373" style="color-interpolation-filters:sRGB"><feBlend id="feBlend4375" in2="BackgroundImage" mode="lighten"/></filter><clipPath clipPathUnits="userSpaceOnUse" id="clipPath4383"><path d="m 137.06914,104.55026 c -4.67344,8.09465 -9.07198,8.09465 -13.74543,0 -4.67345,-8.094646 -2.47418,-11.903892 6.87272,-11.903892 9.34689,0 11.54616,3.809247 6.87271,11.903892 z" id="path4385" style="opacity:1;fill:#e8273c;fill-opacity:1;fill-rule:nonzero;stroke:none;stroke-width:2;stroke-linecap:round;stroke-linejoin:round;stroke-miterlimit:4;stroke-dasharray:none;stroke-opacity:1" transform="matrix(1.0275292,0,0,1.168297,-3.8978949,-18.617223)"/></clipPath><clipPath clipPathUnits="userSpaceOnUse" id="clipPath4248"><g id="g4250"><ellipse cx="150.06837" cy="-16.3678" id="ellipse4252" rx="17.036831" ry="21.868845" style="opacity:1;fill:#c4eb52;fill-opacity:1;fill-rule:nonzero;stroke:none;stroke-width:1;stroke-linecap:round;stroke-linejoin:round;stroke-miterlimit:4;stroke-dasharray:none;stroke-dashoffset:0;stroke-opacity:1" transform="matrix(0.91910487,0.39401298,-0.35730784,0.93398667,0,0)"/><ellipse cx="-105.62783" cy="91.50058" id="ellipse4254" rx="17.036831" ry="21.868845" style="opacity:1;fill:#c4eb52;fill-opacity:1;fill-rule:nonzero;stroke:none;stroke-width:1;stroke-linecap:round;stroke-linejoin:round;stroke-miterlimit:4;stroke-dasharray:none;stroke-dashoffset:0;stroke-opacity:1" transform="matrix(-0.91910487,0.39401298,0.35730784,0.93398667,0,0)"/></g></clipPath><filter id="filter4384" style="color-interpolation-filters:sRGB"><feBlend id="feBlend4386" in2="BackgroundImage" mode="lighten"/></filter><clipPath clipPathUnits="userSpaceOnUse" id="clipPath4447"><path d="m 152.09469,34.277344 c -1.92767,-0.629222 -4.09292,-0.07372 -6.19336,-0.07227 -2.10224,0.0015 -4.27103,-0.551121 -6.20117,0.08008 -4.22429,1.381437 -6.23385,6.319236 -6.23633,10.763672 -0.004,6.869041 5.56846,12.4375 12.4375,12.4375 6.86904,0 12.4375,-5.568458 12.4375,-12.4375 -0.005,-4.448839 -2.0149,-9.390993 -6.24414,-10.771484 z" id="path4449" style="display:inline;opacity:1;fill:#bb0a0a;fill-opacity:1;fill-rule:nonzero;stroke:none;stroke-width:8;stroke-linecap:round;stroke-linejoin:round;stroke-miterlimit:4;stroke-dasharray:none;stroke-dashoffset:0;stroke-opacity:1;filter:url(#filter4384)"/></clipPath><clipPath clipPathUnits="userSpaceOnUse" id="clipPath4352"><path d="m 243.24414,26.527344 a 16.528621,18.738329 0 0 0 -16.52734,18.738281 16.528621,18.738329 0 0 0 0.42382,4.109375 24.57196,24.57196 0 0 0 -8.46874,18.517578 24.57196,24.57196 0 0 0 24.57226,24.572266 24.57196,24.57196 0 0 0 24.57227,-24.572266 24.57196,24.57196 0 0 0 -8.45703,-18.527344 16.528621,18.738329 0 0 0 0.41406,-4.099609 16.528621,18.738329 0 0 0 -16.5293,-18.738281 z" id="path4354" style="opacity:1;fill:#eef93d;fill-opacity:1;fill-rule:nonzero;stroke:none;stroke-width:7;stroke-linecap:round;stroke-linejoin:round;stroke-miterlimit:4;stroke-dasharray:none;stroke-dashoffset:0;stroke-opacity:1"/></clipPath><clipPath clipPathUnits="userSpaceOnUse" id="clipPath5836"><rect height="50" id="rect5838" ry="20.731707" style="opacity:1;fill:#ffd048;fill-opacity:1;fill-rule:nonzero;stroke:none;stroke-width:0.1;stroke-linecap:round;stroke-linejoin:round;stroke-miterlimit:4;stroke-dasharray:none;stroke-dashoffset:0;stroke-opacity:1" width="41.463413" x="96.166519" y="765.12787"/></clipPath><linearGradient gradientUnits="userSpaceOnUse" id="linearGradient4406" x1="53.004513" x2="48.845249" xlink:href="#linearGradient4400" y1="87.792" y2="23.09173"/></defs><g id="layer1" transform="translate(0,-952.36218)"><path d="m 130.19727,92.875 c -4.29096,0 -6.99318,1.092123 -8.10938,3.025391 -1.1162,1.933268 -0.70993,4.819079 1.43555,8.535159 2.14548,3.71609 4.44194,5.50976 6.67383,5.50976 2.23188,0 4.52639,-1.79367 6.67187,-5.50976 2.14549,-3.71609 2.55127,-6.601913 1.43555,-8.535159 C 137.18897,93.967145 134.48822,92.875 130.19727,92.875 Z" id="path4391" style="opacity:1;fill:#7b0f0f;fill-opacity:1;fill-rule:nonzero;stroke:none;stroke-width:2;stroke-linecap:round;stroke-linejoin:round;stroke-miterlimit:4;stroke-dasharray:none;stroke-opacity:1" transform="matrix(3.0891149,0,0,3.484478,-352.32673,655.43858)"/><path d="m 137.06914,104.55026 c -4.67344,8.09465 -9.07198,8.09465 -13.74543,0 -4.67345,-8.094646 -2.47418,-11.903892 6.87272,-11.903892 9.34689,0 11.54616,3.809247 6.87271,11.903892 z" id="path4150" style="opacity:1;fill:#f61931;fill-opacity:1;fill-rule:nonzero;stroke:none;stroke-width:2;stroke-linecap:round;stroke-linejoin:round;stroke-miterlimit:4;stroke-dasharray:none;stroke-opacity:1" transform="matrix(2.3477274,0,0,2.7101495,-256.01246,734.13649)"/><ellipse cx="64.614693" cy="1005.4889" id="circle4271" rx="2.2848279" ry="2.3197436" style="opacity:1;fill:#f4b900;fill-opacity:1;fill-rule:nonzero;stroke:none;stroke-width:1;stroke-linecap:round;stroke-linejoin:round;stroke-miterlimit:4;stroke-dasharray:none;stroke-dashoffset:0;stroke-opacity:1"/><ellipse cx="34.973766" cy="1005.4589" id="circle4255" rx="2.2848279" ry="2.3197436" style="opacity:1;fill:#f4b900;fill-opacity:1;fill-rule:nonzero;stroke:none;stroke-width:1;stroke-linecap:round;stroke-linejoin:round;stroke-miterlimit:4;stroke-dasharray:none;stroke-dashoffset:0;stroke-opacity:1"/><path clip-path="url(#clipPath4383)" d="m 114.42547,94.492409 c 0.0934,5.397913 11.64751,6.354231 16.05653,3.864556 3.89089,-2.1971 10.41888,-3.164885 17.0792,4.173355 l -0.17992,-24.897746 -34,0 z" id="path4377" style="opacity:1;fill:#ffffff;fill-opacity:0.37209305;fill-rule:evenodd;stroke:none;stroke-width:1px;stroke-linecap:butt;stroke-linejoin:miter;stroke-opacity:1;filter:url(#filter4373)" transform="matrix(2.2848279,0,0,2.3197438,-247.10647,777.32369)"/><path d="m 59.232883,969.59734 c -2.732453,-1.60167 -5.595515,-2.57358 -8.665816,-1.90296 -2.012132,0.43947 -3.503193,1.76204 -4.694659,3.2413 -1.761222,-0.67743 -3.704267,-1.06026 -5.664751,-0.41892 -2.98924,0.97785 -4.987294,3.26798 -6.564867,6.0422 -1.577589,2.77421 0.94883,6.91125 1.609367,10.02848 -1.715373,1.74158 -1.695981,6.20934 -0.71142,9.28953 0.914909,2.86238 3.22645,5.06143 5.95889,6.66303 2.732455,1.6018 5.592724,2.5786 8.663022,1.9081 2.011469,-0.4395 3.503267,-1.7626 4.69466,-3.2414 1.761222,0.6773 3.704267,1.0603 5.664752,0.419 2.989242,-0.9779 4.990088,-3.27308 6.567661,-6.04716 1.577588,-2.77426 1.926185,-5.9837 1.265662,-9.10094 -0.4332,-2.04443 -1.125401,-3.25391 -2.583842,-4.46376 -2.146464,-0.47475 -1.263858,-3.63455 -1.89506,-5.62347 -0.9631,-3.03492 -0.911159,-5.19135 -3.643599,-6.79303 z m -5.14285,9.0438 c 0.314443,0.18432 0.08655,0.0319 0.279883,0.17715 -0.09075,0.0716 -0.41754,0.18974 -0.53689,0.2748 0.01302,-0.14747 -0.04978,-0.49384 -0.03401,-0.60945 0.220581,0.0974 -0.02344,-0.0267 0.291057,0.15751 z m -11.367128,2.84736 c 0.07119,0.0929 0.187857,0.43011 0.272693,0.55282 -0.147164,-0.0132 -0.492911,0.0528 -0.607904,0.0365 0.09639,-0.22611 -0.02661,0.0241 0.157916,-0.30042 0.185284,-0.32579 0.03228,-0.0908 0.177309,-0.28906 z m 14.621912,8.57097 c -0.09652,0.22659 0.02735,-0.0252 -0.157917,0.30042 -0.184587,0.32463 -0.03255,0.0912 -0.177309,0.28908 -0.07134,-0.0931 -0.187828,-0.43004 -0.272677,-0.55284 0.147106,0.0132 0.492983,-0.0528 0.607903,-0.0365 z m -11.44814,2.98982 c -0.01302,0.14732 0.04978,0.49395 0.03402,0.60947 -0.220565,-0.0975 0.02344,0.0267 -0.291043,-0.15752 -0.314444,-0.18432 -0.08655,-0.0319 -0.279871,-0.17715 0.09075,-0.0717 0.417642,-0.18985 0.536875,-0.2748 z" id="path4387" style="color:#000000;font-style:normal;font-variant:normal;font-weight:normal;font-stretch:normal;font-size:medium;line-height:normal;font-family:sans-serif;text-indent:0;text-align:start;text-decoration:none;text-decoration-line:none;text-decoration-style:solid;text-decoration-color:#000000;letter-spacing:normal;word-spacing:normal;text-transform:none;direction:ltr;block-progression:tb;writing-mode:lr-tb;baseline-shift:baseline;text-anchor:start;white-space:normal;clip-rule:nonzero;display:inline;overflow:visible;visibility:visible;opacity:1;isolation:auto;mix-blend-mode:normal;color-interpolation:sRGB;color-interpolation-filters:linearRGB;solid-color:#000000;solid-opacity:1;fill:#861111;fill-opacity:0.24537036;fill-rule:nonzero;stroke:none;stroke-width:3.59431887;stroke-linecap:round;stroke-linejoin:round;stroke-miterlimit:4;stroke-dasharray:none;stroke-dashoffset:0;stroke-opacity:1;color-rendering:auto;image-rendering:auto;shape-rendering:auto;text-rendering:auto;enable-background:accumulate"/><path d="m 49.653766,985.22164 c -21.943976,0 -27.10858,10.3257 -16.136606,32.26346 10.972002,21.9377 21.301224,21.9377 32.273198,0 10.972003,-21.93776 5.807369,-32.26346 -16.136592,-32.26346 z m 0,4.63949 c 17.324178,0 21.398229,8.35621 12.736132,26.11517 -8.662082,17.7592 -16.81464,17.7592 -25.476723,0 -8.662082,-17.75896 -4.583589,-26.11517 12.740591,-26.11517 z" id="path4154" style="opacity:1;fill:#ffffff;fill-opacity:0.22685188;fill-rule:nonzero;stroke:none;stroke-width:2;stroke-linecap:round;stroke-linejoin:round;stroke-miterlimit:4;stroke-dasharray:none;stroke-opacity:1"/><path d="m 114.56414,82.862206 c 0,-6.787039 -11.53868,4.751644 -4.75164,4.751644 6.78704,0 -4.75164,-11.538683 -4.75164,-4.751644 0,6.787038 11.53868,-4.751645 4.75164,-4.751645 -6.78704,0 4.75164,11.538683 4.75164,4.751645 z" id="path4198" style="opacity:1;fill:#5f8e27;fill-opacity:1;fill-rule:nonzero;stroke:#7b0f0f;stroke-width:3.35146331;stroke-linecap:round;stroke-linejoin:round;stroke-miterlimit:4;stroke-dasharray:none;stroke-dashoffset:0;stroke-opacity:1" transform="matrix(2.4773081,1.4521314,-1.4302746,2.5151654,-103.6587,616.11709)"/><path d="m 114.56414,82.862206 c 0,-6.787039 -11.53868,4.751644 -4.75164,4.751644 6.78704,0 -4.75164,-11.538683 -4.75164,-4.751644 0,6.787038 11.53868,-4.751645 4.75164,-4.751645 -6.78704,0 4.75164,11.538683 4.75164,4.751645 z" id="path4202" style="opacity:1;fill:#6aa029;fill-opacity:1;fill-rule:nonzero;stroke:none;stroke-width:2.5;stroke-linecap:round;stroke-linejoin:round;stroke-miterlimit:4;stroke-dasharray:2.5, 10;stroke-dashoffset:0;stroke-opacity:1" transform="matrix(2.4773081,1.4521314,-1.4302746,2.5151654,-103.6587,616.11709)"/><ellipse cx="49.990452" cy="1007.6541" id="circle4269" rx="2.2848279" ry="2.3197436" style="opacity:1;fill:#f4b900;fill-opacity:1;fill-rule:nonzero;stroke:none;stroke-width:1;stroke-linecap:round;stroke-linejoin:round;stroke-miterlimit:4;stroke-dasharray:none;stroke-dashoffset:0;stroke-opacity:1"/><ellipse cx="58.000771" cy="1014.731" id="circle4273" rx="2.2848279" ry="2.3197436" style="opacity:1;fill:#f4b900;fill-opacity:1;fill-rule:nonzero;stroke:none;stroke-width:1;stroke-linecap:round;stroke-linejoin:round;stroke-miterlimit:4;stroke-dasharray:none;stroke-dashoffset:0;stroke-opacity:1"/><ellipse cx="41.685055" cy="1014.7186" id="circle4275" rx="2.2848279" ry="2.3197436" style="opacity:1;fill:#f4b900;fill-opacity:1;fill-rule:nonzero;stroke:none;stroke-width:1;stroke-linecap:round;stroke-linejoin:round;stroke-miterlimit:4;stroke-dasharray:none;stroke-dashoffset:0;stroke-opacity:1"/><ellipse cx="49.992573" cy="1024.0033" id="circle4277" rx="2.2848279" ry="2.3197436" style="opacity:1;fill:#f4b900;fill-opacity:1;fill-rule:nonzero;stroke:none;stroke-width:1;stroke-linecap:round;stroke-linejoin:round;stroke-miterlimit:4;stroke-dasharray:none;stroke-dashoffset:0;stroke-opacity:1"/></g><g id="layer2" style="display:inline;opacity:0.4;" transform="translate(0,-952.36218)"><path d="m 52.822266,13.396484 c -0.716959,-0.0217 -1.442694,0.0402 -2.179688,0.201172 -2.027574,0.44287 -3.551167,1.502546 -4.70435,3.018766 -1.744929,-0.72698 -3.652554,-0.849773 -5.625728,-0.204313 -2.870136,0.93888 -4.816163,3.14991 -6.369141,5.88086 -1.447261,2.545037 -2.324119,5.171448 -1.925781,7.939453 -3.310416,1.744811 -5.714071,4.100538 -7.201172,7.005859 -3.44807,6.73643 -2.192087,16.793589 4.435547,29.742188 6.627634,12.948634 13.72067,19.197265 20.615235,19.197265 6.894533,0 13.983693,-6.248631 20.611328,-19.197265 6.627665,-12.948634 7.856773,-22.99391 4.433593,-29.742188 -1.68177,-3.315354 -4.446576,-5.845654 -8.433594,-7.615235 -0.410778,-0.692125 -1.165531,-1.480842 -1.839844,-2.009765 0.716731,-1.77206 0.854779,-3.679404 0.218751,-5.683593 -0.924749,-2.913991 -3.110944,-4.888134 -5.800781,-6.464844 -2.017377,-1.182533 -4.083499,-2.003257 -6.234375,-2.06836 z" id="path4393" style="opacity:1;fill:url(#linearGradient4406);fill-opacity:1;fill-rule:nonzero;stroke:none;stroke-width:2;stroke-linecap:round;stroke-linejoin:round;stroke-miterlimit:4;stroke-dasharray:none;stroke-opacity:1;enable-background:new" transform="translate(0,952.36218)"/></g></svg>